<svg width="64" height="64" viewBox="0 0 64 64" xmlns="http://www.w3.org/2000/svg" role="img" aria-label="Mech Arena Hub">
  <defs>
    <radialGradient id="bg" cx="50%" cy="42%" r="62%">
      <stop offset="0" stop-color="#12344a"/>
      <stop offset="0.58" stop-color="#07131f"/>
      <stop offset="1" stop-color="#02070d"/>
    </radialGradient>
    <linearGradient id="cyan" x1="10" y1="12" x2="54" y2="52">
      <stop stop-color="#00d4ff"/>
      <stop offset="1" stop-color="#39ffb6"/>
    </linearGradient>
    <linearGradient id="orange" x1="16" y1="52" x2="52" y2="14">
      <stop stop-color="#ff6b00"/>
      <stop offset="1" stop-color="#ffd36a"/>
    </linearGradient>
    <filter id="glow" x="-50%" y="-50%" width="200%" height="200%">
      <feGaussianBlur stdDeviation="2.1" result="blur"/>
      <feMerge>
        <feMergeNode in="blur"/>
        <feMergeNode in="SourceGraphic"/>
      </feMerge>
    </filter>
  </defs>
  <rect width="64" height="64" rx="16" fill="url(#bg)"/>
  <path d="M32 6 55 18v28L32 58 9 46V18L32 6Z" fill="#07131f" stroke="url(#cyan)" stroke-width="2.4" filter="url(#glow)"/>
  <path d="M32 13 48 21v20L32 49 16 41V21l16-8Z" fill="#0d2233" stroke="#1a5b72" stroke-width="1.4"/>
  <path d="M20 25 32 18l12 7-5 6H25l-5-6Z" fill="#172f43" stroke="#65dcff" stroke-width="1.2"/>
  <path d="M20 39 25 31h14l5 8-12 6-12-6Z" fill="#081722" stroke="#ff8a25" stroke-width="1.3"/>
  <circle cx="32" cy="32" r="8.5" fill="#06111a" stroke="url(#cyan)" stroke-width="2.2"/>
  <circle cx="32" cy="32" r="3.5" fill="#00d4ff" filter="url(#glow)"/>
  <path d="M7 31h9M48 31h9M31 7v8M31 49v8" stroke="url(#orange)" stroke-width="2" stroke-linecap="round"/>
</svg>
